<?xml version="1.0" encoding="UTF-8" standalone="no"?>
<!DOCTYPE svg PUBLIC "-//W3C//DTD SVG 1.1//EN"
 "http://www.w3.org/Graphics/SVG/1.1/DTD/svg11.dtd">
<!-- Generated by graphviz version 2.43.0 (0)
 -->
<!-- Title: de_bruijn_graph Pages: 1 -->
<svg width="223pt" height="452pt"
 viewBox="0.00 0.00 222.56 452.48" xmlns="http://www.w3.org/2000/svg" xmlns:xlink="http://www.w3.org/1999/xlink">
<g id="graph0" class="graph" transform="scale(1 1) rotate(0) translate(4 448.48)">
<title>de_bruijn_graph</title>
<polygon fill="white" stroke="transparent" points="-4,4 -4,-448.48 218.56,-448.48 218.56,4 -4,4"/>
<!-- GA -->
<g id="node1" class="node">
<title>GA</title>
<ellipse fill="none" stroke="black" cx="108.56" cy="-419.78" rx="24.9" ry="24.9"/>
<text text-anchor="middle" x="108.56" y="-416.08" font-family="Times,serif" font-size="14.00">GA</text>
</g>
<!-- AC -->
<g id="node2" class="node">
<title>AC</title>
<ellipse fill="none" stroke="black" cx="108.56" cy="-320.04" rx="24.1" ry="24.1"/>
<text text-anchor="middle" x="108.56" y="-316.34" font-family="Times,serif" font-size="14.00">AC</text>
</g>
<!-- GA&#45;&gt;AC -->
<g id="edge1" class="edge">
<title>GA&#45;&gt;AC</title>
<path fill="none" stroke="black" d="M108.56,-394.87C108.56,-382.74 108.56,-367.8 108.56,-354.55"/>
<polygon fill="black" stroke="black" points="112.06,-354.36 108.56,-344.36 105.06,-354.36 112.06,-354.36"/>
<text text-anchor="middle" x="124.56" y="-365.88" font-family="Times,serif" font-size="14.00">GAC</text>
</g>
<!-- CT -->
<g id="node3" class="node">
<title>CT</title>
<ellipse fill="none" stroke="black" cx="36.56" cy="-220.29" rx="23.3" ry="23.3"/>
<text text-anchor="middle" x="36.56" y="-216.59" font-family="Times,serif" font-size="14.00">CT</text>
</g>
<!-- AC&#45;&gt;CT -->
<g id="edge2" class="edge">
<title>AC&#45;&gt;CT</title>
<path fill="none" stroke="black" d="M84.63,-317.21C59.66,-313.89 21.66,-304.5 3.56,-277.99 -4.09,-266.79 2.52,-253.74 11.77,-242.98"/>
<polygon fill="black" stroke="black" points="14.44,-245.26 18.82,-235.62 9.38,-240.42 14.44,-245.26"/>
<text text-anchor="middle" x="18.56" y="-266.79" font-family="Times,serif" font-size="14.00">ACT</text>
</g>
<!-- AC&#45;&gt;CT -->
<g id="edge4" class="edge">
<title>AC&#45;&gt;CT</title>
<path fill="none" stroke="black" d="M91.83,-302.55C84.88,-295.31 76.97,-286.53 70.56,-277.99 64.05,-269.31 57.71,-259.31 52.31,-250.15"/>
<polygon fill="black" stroke="black" points="55.26,-248.27 47.24,-241.35 49.2,-251.77 55.26,-248.27"/>
<text text-anchor="middle" x="85.56" y="-266.79" font-family="Times,serif" font-size="14.00">ACT</text>
</g>
<!-- CG -->
<g id="node4" class="node">
<title>CG</title>
<ellipse fill="none" stroke="black" cx="102.56" cy="-220.29" rx="24.9" ry="24.9"/>
<text text-anchor="middle" x="102.56" y="-216.59" font-family="Times,serif" font-size="14.00">CG</text>
</g>
<!-- AC&#45;&gt;CG -->
<g id="edge3" class="edge">
<title>AC&#45;&gt;CG</title>
<path fill="none" stroke="black" d="M107.13,-295.87C106.39,-283.75 105.47,-268.69 104.64,-255.28"/>
<polygon fill="black" stroke="black" points="108.12,-254.73 104.01,-244.97 101.13,-255.16 108.12,-254.73"/>
<text text-anchor="middle" x="121.56" y="-266.79" font-family="Times,serif" font-size="14.00">ACG</text>
</g>
<!-- TT -->
<g id="node5" class="node">
<title>TT</title>
<ellipse fill="none" stroke="black" cx="38.56" cy="-120.54" rx="23" ry="23"/>
<text text-anchor="middle" x="38.56" y="-116.84" font-family="Times,serif" font-size="14.00">TT</text>
</g>
<!-- CT&#45;&gt;TT -->
<g id="edge5" class="edge">
<title>CT&#45;&gt;TT</title>
<path fill="none" stroke="black" d="M37.02,-196.62C37.28,-183.86 37.61,-167.71 37.9,-153.66"/>
<polygon fill="black" stroke="black" points="41.4,-153.49 38.11,-143.42 34.4,-153.35 41.4,-153.49"/>
<text text-anchor="middle" x="53.56" y="-166.39" font-family="Times,serif" font-size="14.00">CTT</text>
</g>
<!-- GT -->
<g id="node7" class="node">
<title>GT</title>
<ellipse fill="none" stroke="black" cx="103.56" cy="-120.54" rx="24.1" ry="24.1"/>
<text text-anchor="middle" x="103.56" y="-116.84" font-family="Times,serif" font-size="14.00">GT</text>
</g>
<!-- CG&#45;&gt;GT -->
<g id="edge9" class="edge">
<title>CG&#45;&gt;GT</title>
<path fill="none" stroke="black" d="M102.43,-195.56C102.41,-185.41 102.42,-173.42 102.56,-162.59 102.58,-160.19 102.62,-157.7 102.67,-155.2"/>
<polygon fill="black" stroke="black" points="106.17,-155.06 102.89,-144.99 99.17,-154.91 106.17,-155.06"/>
<text text-anchor="middle" x="118.06" y="-166.39" font-family="Times,serif" font-size="14.00">CGT</text>
</g>
<!-- TA -->
<g id="node6" class="node">
<title>TA</title>
<ellipse fill="none" stroke="black" cx="132.56" cy="-22.75" rx="23" ry="23"/>
<text text-anchor="middle" x="132.56" y="-19.05" font-family="Times,serif" font-size="14.00">TA</text>
</g>
<!-- TT&#45;&gt;TA -->
<g id="edge6" class="edge">
<title>TT&#45;&gt;TA</title>
<path fill="none" stroke="black" d="M48.93,-100.06C55.6,-88.63 64.97,-74.35 75.56,-63.5 84,-54.83 94.58,-46.86 104.32,-40.36"/>
<polygon fill="black" stroke="black" points="106.42,-43.17 112.95,-34.83 102.64,-37.28 106.42,-43.17"/>
<text text-anchor="middle" x="89.56" y="-67.3" font-family="Times,serif" font-size="14.00">TTA</text>
</g>
<!-- TA&#45;&gt;AC -->
<g id="edge7" class="edge">
<title>TA&#45;&gt;AC</title>
<path fill="none" stroke="black" d="M138.37,-44.96C149.55,-89.6 170.45,-195.92 141.56,-277.99 139.49,-283.84 136.2,-289.48 132.48,-294.6"/>
<polygon fill="black" stroke="black" points="129.51,-292.71 125.95,-302.69 134.96,-297.11 129.51,-292.71"/>
<text text-anchor="middle" x="170.06" y="-166.39" font-family="Times,serif" font-size="14.00">TAC</text>
</g>
<!-- TA&#45;&gt;AC -->
<g id="edge8" class="edge">
<title>TA&#45;&gt;AC</title>
<path fill="none" stroke="black" d="M145.4,-41.74C149.7,-48.35 154.24,-56.05 157.56,-63.5 160.7,-70.57 191.72,-133.04 185.56,-177.59 181.9,-204.06 162.59,-268.75 156.56,-277.99 151.27,-286.08 143.94,-293.46 136.59,-299.67"/>
<polygon fill="black" stroke="black" points="134.37,-296.96 128.71,-305.92 138.72,-302.44 134.37,-296.96"/>
<text text-anchor="middle" x="200.06" y="-166.39" font-family="Times,serif" font-size="14.00">TAC</text>
</g>
<!-- GT&#45;&gt;TA -->
<g id="edge10" class="edge">
<title>GT&#45;&gt;TA</title>
<path fill="none" stroke="black" d="M105.04,-96.51C106.17,-86.22 108.13,-74.06 111.56,-63.5 112.82,-59.6 114.45,-55.63 116.24,-51.78"/>
<polygon fill="black" stroke="black" points="119.51,-53.07 120.91,-42.57 113.27,-49.9 119.51,-53.07"/>
<text text-anchor="middle" x="126.56" y="-67.3" font-family="Times,serif" font-size="14.00">GTA</text>
</g>
</g>
</svg>
